<?xml version="1.0" standalone="no"?>
<!DOCTYPE svg PUBLIC "-//W3C//DTD SVG 20010904//EN"
 "http://www.w3.org/TR/2001/REC-SVG-20010904/DTD/svg10.dtd">
<svg version="1.0" xmlns="http://www.w3.org/2000/svg"
 width="100.000000pt" height="100.000000pt" viewBox="0 0 100.000000 100.000000"
 preserveAspectRatio="xMidYMid meet">

<g transform="translate(0.000000,100.000000) scale(0.100000,-0.100000)"
fill="#000000" stroke="none">
<path d="M0 500 l0 -500 500 0 500 0 0 500 0 500 -500 0 -500 0 0 -500z m448
99 c3 -36 3 -37 35 -27 101 30 167 -103 87 -174 -34 -31 -67 -35 -110 -13 -27
14 -30 14 -30 0 0 -8 -7 -15 -15 -15 -13 0 -15 22 -15 136 0 135 0 135 23 132
17 -2 23 -10 25 -39z m190 20 c4 -19 -27 -34 -41 -20 -14 14 0 43 20 39 10 -2
19 -10 21 -19z"/>
<path d="M467 512 c-34 -37 -11 -92 38 -92 24 0 55 33 55 57 0 19 -37 53 -58
53 -11 0 -26 -8 -35 -18z"/>
</g>
</svg>
